<?xml version="1.0" encoding="UTF-8" standalone="no"?>
<!DOCTYPE svg PUBLIC "-//W3C//DTD SVG 1.1//EN" "http://www.w3.org/Graphics/SVG/1.1/DTD/svg11.dtd">
<!-- Created with Vectornator (http://vectornator.io/) -->
<svg height="512.0px" stroke-miterlimit="10" style="fill-rule:nonzero;clip-rule:evenodd;stroke-linecap:round;stroke-linejoin:round;" version="1.1" viewBox="0 0 512 512" width="512.0px" xml:space="preserve" xmlns="http://www.w3.org/2000/svg" xmlns:xlink="http://www.w3.org/1999/xlink">
<defs>
<path d="M191.542 95.911C191.542 76.0312 220.403 59.9155 256.004 59.9155C291.605 59.9155 320.466 76.0312 320.466 95.911C320.466 115.791 291.605 131.906 256.004 131.906C220.403 131.906 191.542 115.791 191.542 95.911Z" id="Fill"/>
<filter color-interpolation-filters="sRGB" filterUnits="userSpaceOnUse" height="207.707" id="Filter" width="207.708" x="147.754" y="91.6943">
<feDropShadow dx="-4.39618" dy="8.58453" flood-color="#ffffff" flood-opacity="1" in="SourceGraphic" result="Shadow" stdDeviation="33.8168"/>
</filter>
</defs>
<g id="Слой-1">
<path d="M13.7332 104.94C13.7332 56.9962 52.5998 18.1296 100.544 18.1296L402.663 18.1296C450.607 18.1296 489.474 56.9962 489.474 104.94L489.474 407.06C489.474 455.004 450.607 493.87 402.663 493.87L100.544 493.87C52.5998 493.87 13.7332 455.004 13.7332 407.06L13.7332 104.94Z" fill="#40434c" fill-rule="nonzero" opacity="1" stroke="none"/>
<path d="M191.534 90.3702L191.534 391.617C191.534 425.012 218.607 452.085 252.002 452.085L259.998 452.085C293.393 452.085 320.466 425.012 320.466 391.617L320.466 90.3702C320.466 110.691 291.601 127.207 256 127.207C220.399 127.207 191.534 110.692 191.534 90.3702Z" fill="#c2e2e1" fill-rule="nonzero" opacity="1" stroke="none"/>
<path d="M229.768 95.911C229.768 87.3404 241.514 80.3926 256.004 80.3926C270.494 80.3926 282.24 87.3404 282.24 95.911C282.24 104.482 270.494 111.429 256.004 111.429C241.514 111.429 229.768 104.482 229.768 95.911Z" fill="none" opacity="1" stroke="#c6e4e3" stroke-linecap="butt" stroke-linejoin="round" stroke-width="5.28048"/>
<g opacity="1">
<mask height="71.991" id="StrokeMask" maskUnits="userSpaceOnUse" width="128.924" x="191.542" y="59.9155">
<rect fill="#000000" height="71.991" stroke="none" width="128.924" x="191.542" y="59.9155"/>
<use fill="#ffffff" fill-rule="evenodd" stroke="none" xlink:href="#Fill"/>
</mask>
<use fill="none" mask="url(#StrokeMask)" stroke="#c4e3e2" stroke-linecap="butt" stroke-linejoin="round" stroke-width="10.561" xlink:href="#Fill"/>
</g>
<path d="M236.692 186.963C236.692 176.298 245.338 167.652 256.004 167.652C266.67 167.652 275.316 176.298 275.316 186.963C275.316 197.629 266.67 206.275 256.004 206.275C245.338 206.275 236.692 197.629 236.692 186.963Z" fill="#fefaf7" fill-rule="nonzero" filter="url(#Filter)" stroke="none"/>
<path d="M251.604 221.697C251.604 219.501 253.574 217.72 256.004 217.72C258.434 217.72 260.404 219.501 260.404 221.697C260.404 223.893 258.434 225.673 256.004 225.673C253.574 225.673 251.604 223.893 251.604 221.697Z" fill="#fefaf7" fill-rule="nonzero" opacity="1" stroke="none"/>
<path d="M154.128 123.439L154.128 388.561M112.266 179.254L112.266 332.746M70.4051 235.069L70.4051 276.931" fill="none" opacity="1" stroke="#fefaf7" stroke-linecap="round" stroke-linejoin="round" stroke-width="26.5121"/>
<path d="M356.111 123.439L356.111 388.561M397.972 179.254L397.972 332.746M439.833 235.069L439.833 276.931" fill="none" opacity="1" stroke="#fefaf7" stroke-linecap="round" stroke-linejoin="round" stroke-width="26.5121"/>
</g>
</svg>
